<?xml version="1.0" encoding="UTF-8"?><svg xmlns="http://www.w3.org/2000/svg" viewBox="0 0 259 259"><defs><style>.cls-1{fill:#fff;}.cls-2{fill:#ba2334;}.cls-3{fill:#ad213c;}.cls-4{fill:#c22133;}.cls-5{fill:#da212e;}.cls-6{fill:#e42629;}</style></defs><g id="Ebene_3"><rect class="cls-1" width="259" height="259"/></g><g id="Openshift"><path id="path44560" class="cls-4" d="M223,87.69c-2.09-4.35-4.55-8.52-7.35-12.46l-30.12,10.96c3.47,3.56,6.46,7.57,8.88,11.91l28.58-10.41ZM89.9,121l-30.12,10.96c.41,4.82,1.22,9.59,2.42,14.28l28.61-10.42c-.95-4.88-1.24-9.86-.88-14.82"/><path id="path44564" class="cls-5" d="M156.74,79.17c6.08,2.85,11.59,6.77,16.27,11.58l30.11-10.96c-27.62-38.69-81.37-47.67-120.07-20.05-24.58,17.54-38.16,46.68-35.8,76.79l30.12-10.96c2.27-30.73,29.02-53.81,59.75-51.54,6.8,.5,13.45,2.25,19.62,5.15"/><path id="path44572" class="cls-5" d="M188.86,134.19c-.49,6.7-2.2,13.25-5.05,19.33-13.02,28-46.27,40.14-74.26,27.12-6.12-2.85-11.68-6.78-16.4-11.61l-30.05,10.93c8.58,12.09,20.16,21.74,33.6,27.99,43.11,20.05,94.32,1.42,114.46-41.65,6.28-13.43,8.96-28.26,7.76-43.03l-30.05,10.92Z"/><path id="path44576" class="cls-6" d="M196.27,97.43l-28.61,10.41c5.36,9.58,7.8,20.53,7,31.48l30.05-10.93c-.86-10.77-3.72-21.28-8.43-30.99m-132.22,48.16l-28.61,10.42c2.64,10.47,7.2,20.36,13.46,29.16l30.04-10.94c-7.66-7.89-12.83-17.85-14.88-28.65"/><path id="path44588" class="cls-2" d="M218.91,123.26l-30.05,10.94c-.33,4.39-1.18,8.73-2.54,12.91l32.71-11.92c.23-3.98,.19-7.97-.12-11.94M63.13,179.96c2.33,3.28,4.88,6.38,7.65,9.3l32.71-11.93c-3.76-2.35-7.22-5.14-10.32-8.31l-30.04,10.94Z"/><path id="path44584" class="cls-3" d="M218.64,79.77c-.95-1.54-1.94-3.06-2.99-4.54l-30.11,10.96c1.31,1.36,2.55,2.78,3.7,4.27l29.39-10.69ZM89.82,127.05c-.08-2.02-.04-4.03,.11-6.05l-30.16,10.95c.16,1.93,.4,3.85,.69,5.76l29.36-10.66Z"/></g></svg>